<?xml version="1.0" standalone="no"?>
<!DOCTYPE svg PUBLIC "-//W3C//DTD SVG 20010904//EN"
 "http://www.w3.org/TR/2001/REC-SVG-20010904/DTD/svg10.dtd">
<svg version="1.0" xmlns="http://www.w3.org/2000/svg"
 width="564.000000pt" height="564.000000pt" viewBox="0 0 564.000000 564.000000"
 preserveAspectRatio="xMidYMid meet">
<metadata>
Created by potrace 1.14, written by Peter Selinger 2001-2017
</metadata>
<g transform="translate(0.000000,564.000000) scale(0.100000,-0.100000)"
fill="#000000" stroke="none">
<path d="M1075 2824 c-75 -97 -134 -178 -132 -180 3 -3 75 -5 162 -5 140 -1
160 1 176 18 40 41 256 329 252 336 -2 4 -76 7 -163 7 l-159 0 -136 -176z"/>
<path d="M1582 2978 c-45 -49 -252 -323 -249 -332 1 -4 35 -8 76 -9 64 0 75 3
96 24 46 47 254 323 249 331 -3 4 -38 8 -78 8 -62 0 -75 -3 -94 -22z"/>
<path d="M1695 2824 c-74 -97 -133 -179 -130 -182 3 -3 31 -4 63 -3 44 1 62 7
79 24 42 43 251 322 247 329 -3 5 -32 8 -64 8 l-59 0 -136 -176z"/>
<path d="M2026 2973 c-83 -95 -253 -328 -244 -334 6 -4 29 -6 50 -4 28 3 45
12 61 31 130 164 245 320 241 326 -3 4 -23 8 -45 8 -30 0 -44 -6 -63 -27z"/>
<path d="M2168 2908 c-152 -192 -200 -257 -194 -266 8 -13 68 -5 82 11 36 39
254 329 254 337 0 6 -16 10 -35 10 -31 0 -40 -8 -107 -92z"/>
<path d="M2358 2933 c-141 -178 -220 -285 -215 -290 3 -3 36 -6 73 -6 67 0 68
0 104 41 l36 42 252 0 252 0 0 -39 0 -39 56 -4 c30 -1 62 1 70 5 19 11 21 326
2 345 -9 9 -88 12 -295 12 l-282 0 -53 -67z m497 -73 l0 -45 -212 -3 c-117 -1
-213 0 -213 4 0 3 16 26 36 50 l37 44 176 -2 176 -3 0 -45z"/>
<path d="M3067 2993 c-13 -12 -8 -341 4 -349 17 -10 91 -11 112 -2 15 8 17 24
17 113 0 58 2 105 6 105 3 0 51 -29 106 -65 91 -58 107 -65 152 -65 46 0 63 7
156 65 l105 65 5 -105 c6 -118 9 -125 75 -125 67 0 66 -3 63 191 l-3 174 -60
3 -60 3 -133 -86 c-73 -47 -139 -85 -146 -85 -7 0 -72 38 -144 85 -126 82
-132 85 -189 85 -33 0 -63 -3 -66 -7z"/>
<path d="M3947 2993 c-4 -3 -7 -84 -7 -180 0 -131 3 -173 13 -173 9 -1 590 0
725 0 21 0 22 3 22 105 0 77 -3 105 -12 105 -7 1 -49 2 -93 4 -44 1 -127 0
-185 -3 l-105 -6 0 -30 0 -30 128 -3 127 -3 0 -24 0 -25 -242 2 -243 3 -3 65
c-2 35 -1 75 3 87 l5 23 308 2 307 3 0 40 0 40 -371 3 c-204 1 -373 -1 -377
-5z"/>
</g>
</svg>
